<?xml version="1.0" standalone="no"?>
<!DOCTYPE svg PUBLIC "-//W3C//DTD SVG 20010904//EN"
 "http://www.w3.org/TR/2001/REC-SVG-20010904/DTD/svg10.dtd">
<svg version="1.0" xmlns="http://www.w3.org/2000/svg"
 width="700.000000pt" height="700.000000pt" viewBox="0 0 700.000000 700.000000"
 preserveAspectRatio="xMidYMid meet">
<metadata>
Created by potrace 1.14, written by Peter Selinger 2001-2017
</metadata>
<g transform="translate(0.000000,700.000000) scale(0.100000,-0.100000)"
fill="#000000" stroke="none">
<path d="M3180 6920 c-577 -43 -979 -119 -1274 -239 -417 -171 -617 -409 -736
-880 -61 -239 -109 -536 -135 -836 -17 -195 -38 -889 -33 -1081 4 -126 5 -132
52 -259 l48 -130 -16 -46 c-42 -115 -31 -215 44 -439 131 -390 328 -788 676
-1372 177 -296 326 -529 398 -621 60 -78 144 -194 313 -437 145 -208 320 -367
467 -427 150 -62 238 -73 441 -54 55 5 82 2 125 -13 150 -51 425 30 635 186
220 164 407 407 872 1133 432 676 577 953 687 1319 42 138 84 338 87 416 2 35
9 65 21 82 36 52 88 177 108 260 28 113 47 726 31 983 -6 94 -16 267 -22 385
-19 398 -58 697 -123 952 -113 443 -282 665 -631 833 -251 122 -622 211 -1125
271 -157 19 -729 27 -910 14z m665 -341 c499 -32 969 -132 1232 -261 261 -128
368 -290 456 -688 64 -287 104 -753 110 -1280 l2 -195 -26 -3 c-15 -2 -69 13
-120 32 -52 19 -116 40 -144 47 -43 10 -62 24 -130 94 -60 60 -100 91 -160
122 -110 57 -178 73 -330 80 -225 10 -321 -20 -561 -171 -63 -40 -107 -76
-127 -104 l-31 -42 45 -46 c69 -72 87 -78 214 -76 501 9 916 23 945 32 52 15
133 12 276 -10 71 -11 135 -20 143 -20 12 0 13 -37 7 -237 -10 -343 -28 -398
-180 -549 -111 -110 -199 -176 -269 -202 -29 -11 -105 -28 -167 -37 -115 -17
-246 -17 -497 1 -89 6 -93 6 -93 -13 0 -41 113 -71 325 -88 102 -8 127 -17
118 -43 -14 -40 -136 -213 -198 -279 -36 -40 -97 -92 -134 -117 -169 -113
-464 -184 -556 -134 -26 14 -74 60 -192 185 -22 22 -24 23 -50 8 -16 -8 -49
-31 -76 -49 -29 -21 -70 -39 -105 -47 -113 -23 -266 10 -333 72 l-32 30 6 112
c4 62 18 189 33 282 32 204 42 401 43 865 1 428 -11 512 -99 695 -49 100 -111
176 -241 290 -345 305 -466 369 -692 370 -94 0 -120 -3 -127 -15 -5 -8 -8 -19
-7 -25 7 -20 70 -48 164 -72 161 -41 228 -83 473 -303 121 -108 155 -153 236
-312 l44 -87 -10 -293 c-9 -294 -21 -408 -68 -636 -27 -129 -55 -171 -167
-246 -109 -74 -135 -112 -135 -201 0 -79 14 -126 53 -176 35 -45 90 -81 113
-72 8 3 14 19 14 37 0 53 27 129 70 195 45 70 66 83 87 55 12 -15 14 -42 9
-134 -4 -63 -9 -131 -12 -151 -5 -33 -1 -42 46 -94 46 -51 51 -61 46 -89 -8
-39 -77 -109 -133 -136 -25 -12 -63 -20 -94 -20 -102 0 -419 128 -553 224 -35
25 -85 69 -111 98 -61 68 -154 209 -157 239 -3 24 -2 24 117 30 119 6 293 35
392 64 45 14 73 39 58 53 -3 3 -81 -1 -173 -9 -92 -8 -255 -14 -363 -14 l-195
0 -69 35 c-161 81 -312 289 -420 575 l-38 100 2 305 c4 653 33 1004 116 1415
67 330 137 497 260 621 237 239 719 363 1620 417 125 8 354 6 500 -4z m-2374
-3271 c33 -36 104 -175 169 -332 54 -130 98 -206 308 -536 275 -432 363 -584
518 -897 80 -160 152 -297 160 -304 13 -10 17 -10 25 2 13 21 11 39 -16 133
-22 77 -25 104 -25 261 l0 175 30 0 c16 0 73 -16 127 -36 54 -20 168 -60 253
-89 199 -66 234 -99 260 -236 13 -69 6 -104 -46 -225 -24 -55 -46 -125 -50
-155 -7 -61 10 -174 57 -373 17 -72 33 -161 36 -198 l6 -68 -29 0 c-47 1 -160
45 -213 84 -85 63 -184 178 -310 363 -66 98 -148 212 -181 253 -188 237 -617
945 -833 1376 -170 340 -331 765 -311 819 10 24 33 18 65 -17z m4019 -133 c0
-42 -43 -251 -71 -343 -107 -354 -272 -657 -802 -1472 -274 -422 -400 -592
-529 -715 -125 -120 -212 -174 -346 -215 -61 -19 -75 -20 -88 -9 -23 19 -14
99 31 279 28 112 38 173 42 267 6 119 5 123 -31 232 -54 164 -48 205 45 343
32 48 59 90 59 93 0 3 -11 5 -24 5 -14 0 -40 9 -58 19 -29 17 -62 20 -278 24
-268 6 -317 13 -505 74 -240 77 -316 132 -640 457 -253 254 -320 337 -404 497
-70 133 -122 309 -92 309 13 0 59 -76 156 -260 48 -91 102 -188 121 -216 106
-159 357 -321 648 -419 137 -45 225 -64 340 -71 56 -4 106 -13 131 -25 56 -26
146 -38 320 -46 126 -5 171 -2 280 15 72 12 168 26 215 32 286 36 553 152 721
312 75 72 92 97 209 298 117 200 178 297 205 323 29 29 37 1 24 -87 -25 -187
-86 -290 -346 -590 -143 -165 -167 -195 -143 -181 8 4 31 21 51 37 20 15 42
28 48 28 17 0 13 -42 -8 -80 -49 -92 -207 -360 -284 -483 -125 -198 -163 -277
-134 -277 19 0 37 24 302 415 429 633 563 873 710 1277 43 119 84 188 111 188
9 0 14 -11 14 -35z m-1921 -922 c52 -54 107 -116 123 -137 52 -71 56 -70 -194
-62 -238 7 -278 11 -278 30 0 14 122 170 178 229 20 20 45 37 57 37 12 0 55
-36 114 -97z m-55 -1226 c7 -26 6 -40 -3 -51 -21 -25 -31 -9 -31 45 0 60 20
63 34 6z"/>
<path d="M4480 5445 c-243 -49 -542 -229 -649 -392 -26 -39 -31 -56 -31 -107
0 -73 25 -126 64 -140 39 -14 87 13 258 147 304 238 466 307 722 307 177 0
267 -35 421 -165 55 -46 101 -82 104 -80 5 6 -47 94 -93 153 -54 70 -181 172
-271 217 -110 54 -208 75 -344 74 -64 0 -145 -7 -181 -14z"/>
<path d="M2197 5439 c-178 -23 -355 -124 -467 -265 -47 -58 -106 -161 -98
-169 2 -3 49 36 103 86 153 138 231 169 432 169 120 0 211 -18 329 -66 178
-71 251 -118 414 -267 52 -48 114 -97 138 -108 80 -39 140 -5 158 90 24 123
-146 308 -391 426 -201 97 -405 131 -618 104z"/>
<path d="M4600 5194 c-135 -36 -274 -121 -467 -288 -203 -175 -318 -332 -311
-427 5 -74 33 -60 183 88 147 146 351 326 467 413 63 48 96 65 166 85 197 59
248 87 226 123 -15 23 -186 27 -264 6z"/>
<path d="M2192 4519 c-191 -23 -290 -68 -410 -188 -80 -80 -92 -88 -144 -100
-32 -7 -58 -15 -58 -19 0 -3 7 -32 16 -64 16 -56 16 -60 -6 -128 -13 -39 -20
-73 -17 -77 4 -3 21 1 39 10 46 21 89 33 198 56 94 20 232 31 650 51 366 18
421 29 480 96 37 42 38 73 4 113 -52 62 -323 207 -439 235 -80 19 -223 26
-313 15z"/>
<path d="M3926 3211 c-33 -36 -17 -63 53 -89 52 -20 68 -32 91 -68 15 -24 35
-69 44 -101 10 -32 20 -65 23 -73 3 -12 9 -10 25 10 40 49 6 169 -70 245 -32
32 -126 95 -143 95 -3 0 -14 -9 -23 -19z"/>
</g>
</svg>
